<svg width="24" height="24" viewBox="0 0 24 24" fill="#8D95A1" xmlns="http://www.w3.org/2000/svg">
<path d="M6.9989 2.99072C6.4466 2.99072 5.9989 3.43872 5.9989 3.99072C5.9989 4.54272 6.4466 4.99072 6.9989 4.99072V6.99072H3.9989H2.9989C2.4466 6.99072 1.9989 7.43872 1.9989 7.99072C1.9989 8.54272 2.4466 8.99072 2.9989 8.99072V19.9907C2.9989 20.5427 3.4466 20.9907 3.9989 20.9907H7.9989H11.9989C12.5509 20.9907 12.9989 20.5427 12.9989 19.9907V17.9907C12.9989 17.4387 13.4469 16.9907 13.9989 16.9907C14.5509 16.9907 14.9989 17.4387 14.9989 17.9907V19.9907C14.9989 20.5427 15.4469 20.9907 15.9989 20.9907H19.9989C20.5509 20.9907 20.9989 20.5427 20.9989 19.9907V4.99072C21.5509 4.99072 21.9989 4.54272 21.9989 3.99072C21.9989 3.43872 21.5509 2.99072 20.9989 2.99072H6.9989ZM8.9989 4.99072H18.9989V18.9907H16.9989V17.9907C16.9989 16.3337 15.6559 14.9907 13.9989 14.9907C12.3419 14.9907 10.9989 16.3337 10.9989 17.9907V18.9907H8.9989V7.99072V4.99072ZM11.9989 6.99072C11.4469 6.99072 10.9989 7.43872 10.9989 7.99072C10.9989 8.54272 11.4469 8.99072 11.9989 8.99072C12.5509 8.99072 12.9989 8.54272 12.9989 7.99072C12.9989 7.43872 12.5509 6.99072 11.9989 6.99072ZM15.9989 6.99072C15.4469 6.99072 14.9989 7.43872 14.9989 7.99072C14.9989 8.54272 15.4469 8.99072 15.9989 8.99072C16.5509 8.99072 16.9989 8.54272 16.9989 7.99072C16.9989 7.43872 16.5509 6.99072 15.9989 6.99072ZM4.9989 8.99072H6.9989V18.9907H4.9989V8.99072ZM11.9989 10.9907C11.4469 10.9907 10.9989 11.4387 10.9989 11.9907C10.9989 12.5427 11.4469 12.9907 11.9989 12.9907C12.5509 12.9907 12.9989 12.5427 12.9989 11.9907C12.9989 11.4387 12.5509 10.9907 11.9989 10.9907ZM15.9989 10.9907C15.4469 10.9907 14.9989 11.4387 14.9989 11.9907C14.9989 12.5427 15.4469 12.9907 15.9989 12.9907C16.5509 12.9907 16.9989 12.5427 16.9989 11.9907C16.9989 11.4387 16.5509 10.9907 15.9989 10.9907Z"/>
</svg>
