<svg width="24" height="25" viewBox="0 0 24 25" fill="#8D95A1" xmlns="http://www.w3.org/2000/svg">
<path d="M8.02832 2.49902C5.81922 2.49902 4.02832 4.29003 4.02832 6.49903V18.499C4.02832 20.7081 5.81922 22.4991 8.02832 22.4991H16.0283C18.2374 22.4991 20.0283 20.7081 20.0283 18.499V6.49903C20.0283 4.29003 18.2374 2.49902 16.0283 2.49902H8.02832ZM15.0283 9.49903C15.2842 9.49903 15.5518 9.58504 15.7471 9.78004C16.1376 10.171 16.1376 10.827 15.7471 11.218L11.7471 15.218C11.3565 15.608 10.7001 15.608 10.3095 15.218L8.30952 13.218C7.91902 12.827 7.91902 12.171 8.30952 11.78C8.70012 11.39 9.35652 11.39 9.74712 11.78L11.0283 13.0611L14.3095 9.78004C14.5048 9.58504 14.7724 9.49903 15.0283 9.49903Z" />
</svg>
