<?xml version="1.0" encoding="UTF-8"?><svg id="_레이어_2" xmlns="http://www.w3.org/2000/svg" xmlns:xlink="http://www.w3.org/1999/xlink" viewBox="0 0 170 158"><defs><style>.cls-1{fill:#bcbcce;}.cls-2{fill:url(#_무제_그라디언트_48);}.cls-3{fill:#d1d3dc;}.cls-4{opacity:.4;}.cls-5{fill:#f2f1f1;}.cls-6{fill:none;stroke:#adaecc;stroke-dasharray:3.86 3.86;stroke-linecap:round;stroke-miterlimit:10;stroke-width:2px;}</style><linearGradient id="_무제_그라디언트_48" x1="83" y1="141.76" x2="83" y2="17.11" gradientUnits="userSpaceOnUse"><stop offset="0" stop-color="#e4e2f2"/><stop offset="1" stop-color="#ececef"/></linearGradient></defs><g id="_레이어_1-2"><path class="cls-3" d="M140.15,25H25.85c-9.19,0-16.32,8.05-15.24,17.21l8.89,75.21c.92,7.75,7.47,13.59,15.26,13.58l48.24-.05,48.24.05c7.78,0,14.34-5.83,15.26-13.58l8.89-75.21c1.08-9.16-6.05-17.21-15.24-17.21Z"/><g class="cls-4"><path class="cls-5" d="M134.69,85H31.31c-4.59,0-8.31-3.97-8.31-8.87V9.87c0-4.9,3.72-8.87,8.31-8.87h103.39c4.59,0,8.31,3.97,8.31,8.87v66.26c0,4.9-3.72,8.87-8.31,8.87Z"/><path class="cls-6" d="M134.69,85H31.31c-4.59,0-8.31-3.97-8.31-8.87V9.87c0-4.9,3.72-8.87,8.31-8.87h103.39c4.59,0,8.31,3.97,8.31,8.87v66.26c0,4.9-3.72,8.87-8.31,8.87Z"/></g><path class="cls-2" d="M84.79,63.7h0c-1.59,0-3.1-.69-4.12-1.9l-7.27-8.56c-5.51-6.49-13.66-10.24-22.24-10.24H9.9c-6.18,0-10.85,5.53-9.73,11.53l1.71,9.18,10.81,67.05c1.14,7.05,7.3,12.24,14.54,12.24h115.12c7.24,0,13.4-5.19,14.54-12.24l8.99-55.74c.96-5.94-3.69-11.31-9.78-11.31h-71.3Z"/><path class="cls-1" d="M168.58,149.72l-25.88-25.83c3.42-4.76,5.44-10.58,5.44-16.87,0-16-13.04-29.02-29.07-29.02s-29.07,13.02-29.07,29.02,13.04,29.02,29.07,29.02c6.23,0,12.01-1.97,16.74-5.32l25.92,25.87c.95.94,2.18,1.42,3.42,1.42s2.48-.48,3.43-1.42c1.89-1.89,1.89-4.96,0-6.86ZM119.07,126.43c-10.73,0-19.46-8.71-19.46-19.41s8.73-19.41,19.46-19.41,19.46,8.71,19.46,19.41-8.73,19.41-19.46,19.41Z"/></g></svg>